<svg xmlns="http://www.w3.org/2000/svg" width="32" height="32" viewBox="0 0 32 32"><g transform="translate(542.988 -1362.339)"><path fill="#60c5b8" style="isolation:auto;mix-blend-mode:normal" d="M-524.10657 1364.108a6.5220158 6.3705561 61.066753 0 0-2.58556 8.1771 6.5220158 6.3705561 61.066753 0 0 2.11259-.7466 6.5220158 6.3705561 61.066753 0 0 2.58558-8.1771 6.5220158 6.3705561 61.066753 0 0-2.11261.7466zM-532.8953 1367.8494a6.0500801 6.1119119 0 0 1 6.00698 5.4223 6.0500801 6.1119119 0 0 1-2.09222.3847 6.0500801 6.1119119 0 0 1-6.00698-5.4223 6.0500801 6.1119119 0 0 1 2.09222-.3847zM-522.78466 1374.316a4.0615298 4.0182513 0 0 0-4.03261 3.5649 4.0615298 4.0182513 0 0 0 1.40455.253 4.0615298 4.0182513 0 0 0 4.0326-3.565 4.0615298 4.0182513 0 0 0-1.40454-.2529z" color="#000" overflow="visible"/><path fill="#34485c" d="m -533.34842,1383.3335 1.22632,11.0051 10.41675,0 1.22632,-11.0051 z"/><path fill="#25b39e" fill-rule="evenodd" style="line-height:normal;text-indent:0;text-align:start;text-decoration-line:none;text-decoration-style:solid;text-decoration-color:#000;text-transform:none;block-progression:tb;isolation:auto;mix-blend-mode:normal" d="m -527.38867,1372.4375 0,8.4004 1,0 0,-8.4004 -1,0 z" color="#000" font-family="sans-serif" font-weight="400" overflow="visible"/><path fill="#25b39e" fill-rule="evenodd" style="line-height:normal;text-indent:0;text-align:start;text-decoration-line:none;text-decoration-style:solid;text-decoration-color:#000;text-transform:none;block-progression:tb;isolation:auto;mix-blend-mode:normal" d="m -530.92773,1370.3047 a 0.50005,0.50005 0 0 0 -0.22852,0.9433 l 4,2.125 a 0.50005,0.50005 0 1 0 0.46875,-0.8828 l -4,-2.125 a 0.50005,0.50005 0 0 0 -0.24023,-0.061 z" color="#000" font-family="sans-serif" font-weight="400" overflow="visible"/><path fill="#25b39e" fill-rule="evenodd" style="line-height:normal;text-indent:0;text-align:start;text-decoration-line:none;text-decoration-style:solid;text-decoration-color:#000;text-transform:none;block-progression:tb;isolation:auto;mix-blend-mode:normal" d="M-523.82812 1367.4941a.50005.50005 0 0 0-.41211.2207l-3.11524 4.4903a.50005.50005 0 1 0 .82031.5703l3.11719-4.4902a.50005.50005 0 0 0-.41015-.7911zM-524.36133 1375.7422a.50005.50005 0 0 0-.22265.072l-2.21875 1.3125a.50042306.50042306 0 0 0 .50976.8613l2.21875-1.3125a.50005.50005 0 0 0-.28711-.9336z" color="#000" font-family="sans-serif" font-weight="400" overflow="visible"/><path fill="#2b4255" d="m -534.1365,1380.3386 14.42791,0 c 0.15847,0 0.28604,0.1281 0.28604,0.2871 l 0,2.4218 c 0,0.159 -0.12757,0.2871 -0.28604,0.2871 l -14.42791,0 c -0.15847,0 -0.28605,-0.1281 -0.28605,-0.2871 l 0,-2.4218 c 0,-0.159 0.12758,-0.2871 0.28605,-0.2871 z"/></g></svg>