<svg xmlns="http://www.w3.org/2000/svg" data-name="Layer 1" viewBox="0 0 168 168"><circle cx="2" cy="150.238" r="2" fill="#2d4356"/><path fill="#2d4356" d="M11 148.23841H8a2 2 0 0 0 0 4h3a2 2 0 0 0 0-4zM160 148.23841h-3a2 2 0 0 0 0 4h3a2 2 0 0 0 0-4z"/><circle cx="166" cy="150.238" r="2" fill="#2d4356"/><path fill="#0bceb2" d="M118.15387 156.23841h-8.30774a2.00641 2.00641 0 0 0 0 4h8.30774a2.00641 2.00641 0 0 0 0-4zM58.15387 156.23841H49.84613a2.00641 2.00641 0 0 0 0 4h8.30774a2.00641 2.00641 0 0 0 0-4zM104 156.23841H64a2 2 0 0 0 0 4H79.94v2H72a2 2 0 0 0 0 4H97a2 2 0 1 0 0-4H88.06v-2H104a2 2 0 1 0 0-4zM73.20374 121.65907l3.001 2.0531-1.10864 3.21277a4.018 4.018 0 0 0 1.33337 4.48706 3.94627 3.94627 0 0 0 4.647.13562l3.29053-2.25122 3.29053 2.25122a3.94627 3.94627 0 0 0 4.647-.13562 4.01793 4.01793 0 0 0 1.33331-4.48706l-1.10858-3.21277 2.93237-2.00623a4.0054 4.0054 0 0 0-2.1568-7.356h-4.006l-1.18182-3.425a3.96049 3.96049 0 0 0-7.5 0l-1.18182 3.425h-4.001a3.97389 3.97389 0 0 0-3.79492 2.82446A4.01551 4.01551 0 0 0 73.20374 121.65907zM82.25812 118.35l2.10883-6.11157L86.47571 118.35h6.8241l-5.52081 3.7771 2.10876 6.11133-5.52081-3.7771-5.52081 3.7771 2.10876-6.11133L75.43408 118.35z"/><path fill="#2d4356" d="M150.72131 148.23841H109.18048v-4a3.9964 3.9964 0 0 0-2.47876-3.70239l7.34521-39.40894a3.98886 3.98886 0 0 0 3.07385-3.88867v-4a3.9852 3.9852 0 0 0-3.97015-4H86.352V82.60316a106.11358 106.11358 0 0 1 5.84912-13.44165 1.99576 1.99576 0 0 0 .32715-.23755c3.49036-3.11328 8.84076-6.68164 14.47131-5.96387 3.9256.49512 7.606 3.03027 10.9538 7.542-2.712 2.65625-10.441 8.6709-19.85077 2.29395a10.00536 10.00536 0 0 1 10.49628-2.64551 1.98145 1.98145 0 0 0 2.47943-1.32617 2.002 2.002 0 0 0-1.31628-2.498A14.155 14.155 0 0 0 93.56537 72.09a2.01 2.01 0 0 0 .43329 2.61719c4.4635 3.63965 8.70123 4.93066 12.46783 4.93066 9.12769-.001 15.48712-7.582 15.57629-7.69043a2.01218 2.01218 0 0 0 .11145-2.39746c-4.259-6.31641-9.19165-9.86816-14.66034-10.55859A17.52512 17.52512 0 0 0 98.85468 60.204c3.5697-3.036 6.94861-3.288 10.56519-3.54858 1.43646-.10352 2.92139-.21094 4.47711-.4707 5.06934-.84277 11.94928-3.08887 15.94171-9.00775 3.16956-4.7002 3.96045-10.87109 2.35144-18.33984a1.9876 1.9876 0 0 0-1.93951-1.57617c-.18707 0-18.68866.22852-19.98553 20.00873a1.99646 1.99646 0 0 0 1.78442 2.12207A13.01078 13.01078 0 0 0 124.906 41.01484a2.00739 2.00739 0 0 0-1.05939-2.62012 1.981 1.981 0 0 0-2.60059 1.06738 9.08642 9.08642 0 0 1-6.76654 5.79395c1.76215-11.03418 10.48468-13.36914 14.15729-13.86328.91888 5.57227.221 10.12012-2.082 13.53613-3.20056 4.746-9.00165 6.59369-13.30621 7.30951-1.37445.22949-2.76636.33008-4.11169.42676-.96368.06958-1.9212.1405-2.87653.24878 2.30261-4.04333 4.022-9.06439 3.01709-14.30145-1.04974-5.46777-4.86676-10.209-11.3454-14.09277a1.973 1.973 0 0 0-2.38641.27344c-.14343.1377-14.10785 13.90918-.86261 28.53119a1.97534 1.97534 0 0 0 2.77112.15918 15.45352 15.45352 0 0 0 3.65906-16.94916 1.98186 1.98186 0 0 0-2.55695-1.168 2.00519 2.00519 0 0 0-1.1593 2.57617 11.50857 11.50857 0 0 1-1.21155 10.94135c-6.62988-8.98822-1.33276-17.13763 1.08075-20.06635 4.63214 3.08105 7.35876 6.627 8.11285 10.55469 1.07806 5.61743-1.99628 11.21429-4.81165 14.96454-5.06879 2.22144-10.28357 7.72974-16.20038 22.36133C78.68622 62.6504 73.65277 57.016 68.77423 54.6222c-2.38538-3.24731-5.84772-9.199-4.69238-15.2226.76379-3.97852 3.4613-7.53223 8.02759-10.58105 2.45618 2.96777 7.9093 11.25488 1.3512 20.26068a12.10974 12.10974 0 0 1-1.13116-11.13666 2.00521 2.00521 0 0 0-1.15924-2.57617 1.98181 1.98181 0 0 0-2.55695 1.168 16.08506 16.08506 0 0 0 3.48358 17.16888 1.97686 1.97686 0 0 0 2.81866-.11621c13.24323-14.61908-.93927-28.65131-1.08466-28.79193a1.97476 1.97476 0 0 0-2.38928-.27539c-6.40887 3.8418-10.19678 8.59277-11.2572 14.12109-1.02576 5.34442.73431 10.46332 2.8396 14.34076-1.138-.14893-2.27814-.23364-3.42694-.31641-1.3454-.09668-2.73724-.19727-4.11462-.42773-4.55945-.75781-10.696-2.69922-14.03418-7.64935-2.30878-3.42383-3.00574-7.92969-2.07812-13.41016a14.97637 14.97637 0 0 1 9.402 3.06934c2.54431 2.10742 4.10968 5.28223 4.6651 9.45215-1.75049.16016-4.80084-.40918-6.95941-5.27637A1.9801 1.9801 0 0 0 43.856 37.4123a2.00611 2.00611 0 0 0-1.00323 2.6416c3.75305 8.46381 10.46631 8.29974 13.49335 7.03125a1.99953 1.99953 0 0 0 1.21741-1.97949c-.40613-6.14648-2.51624-10.83887-6.27026-13.94824-5.85541-4.85059-13.5069-3.92578-13.82965-3.87988A1.98861 1.98861 0 0 0 35.778 28.83711c-1.56732 7.27148-.76379 13.32715 2.38641 17.999 4.12909 6.123 11.3454 8.46283 16.66962 9.3476 1.55859.26074 3.04352.36816 4.48.47168 3.55865.25647 6.887.502 10.39355 3.4021a18.345 18.345 0 0 0-9.14612-1.31909c-5.48615.69336-10.38483 4.18359-14.56049 10.376a2.01069 2.01069 0 0 0 .07654 2.35352c.24719.31934 6.15588 7.8418 14.83868 8.8457a16.76719 16.76719 0 0 0 1.90948.11035 18.62573 18.62573 0 0 0 11.8717-4.63086 2.00954 2.00954 0 0 0 .442-2.60254A14.06214 14.06214 0 0 0 58.97186 67.3263a1.99863 1.99863 0 0 0 1.16309 3.82422 9.865 9.865 0 0 1 10.476 2.71094 13.55774 13.55774 0 0 1-9.21783 2.48047c-5.2312-.59473-9.40979-4.3457-11.21558-6.24023 3.281-4.41113 6.93524-6.89648 10.87823-7.39355 6.21985-.79395 12.16638 3.55664 15.14789 6.21582a1.99621 1.99621 0 0 0 .32959.23853 106.12247 106.12247 0 0 1 5.84857 13.44067v6.63525H55.58325a3.9852 3.9852 0 0 0-3.97015 4v4a3.98886 3.98886 0 0 0 3.07385 3.88867l7.34521 39.40881a3.9967 3.9967 0 0 0-2.47876 3.70251v4H17.27869a2.017 2.017 0 1 0 0 4H150.72131a2.017 2.017 0 1 0 0-4zm-95.13806-55h57.56738v4H55.58325zm3.164 8h51.23932l-7.269 39H66.01624zm4.77631 43h41.68671v4H63.52356zM55.58325 20.71957a3 3 0 1 0-3-3A3.00344 3.00344 0 0 0 55.58325 20.71957zm0-4.5a1.5 1.5 0 1 1-1.5 1.5A1.50148 1.50148 0 0 1 55.58325 16.21957zM160.30471 15.71957a2 2 0 1 0 2 2A2.00229 2.00229 0 0 0 160.30471 15.71957zm0 3a1 1 0 1 1 1-1A1.001 1.001 0 0 1 160.30471 18.71957zM143 55.90508a2 2 0 1 0 2 2A2.00229 2.00229 0 0 0 143 55.90508zm0 3a1 1 0 1 1 1-1A1.001 1.001 0 0 1 143 58.90508zM127.33333 6.395a2 2 0 1 0 2 2A2.00229 2.00229 0 0 0 127.33333 6.395zm0 3a1 1 0 1 1 1-1A1.001 1.001 0 0 1 127.33333 9.395zM28 53.90508a2 2 0 1 0-2 2A2.00229 2.00229 0 0 0 28 53.90508zm-3 0a1 1 0 1 1 1 1A1.001 1.001 0 0 1 25 53.90508z"/><polygon fill="#0bceb2" points="8.111 40.988 9.597 39.032 8.658 38.5 7.704 40.69 7.672 40.69 6.703 38.516 5.747 39.063 7.219 40.972 7.219 41.004 4.918 40.706 4.918 41.77 7.234 41.473 7.234 41.504 5.747 43.413 6.639 43.976 7.657 41.77 7.688 41.77 8.627 43.961 9.613 43.397 8.111 41.52 8.111 41.488 10.473 41.77 10.473 40.706 8.111 41.019 8.111 40.988"/><polygon fill="#0bceb2" points="10.207 12.392 9.351 13.491 9.864 13.815 10.451 12.545 10.468 12.545 11.009 13.806 11.577 13.482 10.712 12.4 10.712 12.382 12.072 12.545 12.072 11.932 10.712 12.112 10.712 12.094 11.568 10.968 11.027 10.662 10.478 11.923 10.459 11.923 9.901 10.67 9.351 10.986 10.198 12.085 10.198 12.103 8.873 11.932 8.873 12.545 10.207 12.374 10.207 12.392"/><polygon fill="#0bceb2" points="164.029 47.952 164.029 46.908 161.712 47.215 161.712 47.185 163.17 45.266 162.249 44.745 161.313 46.893 161.282 46.893 160.331 44.76 159.394 45.297 160.837 47.17 160.837 47.2 158.581 46.908 158.581 47.952 160.852 47.661 160.852 47.691 159.394 49.563 160.269 50.116 161.267 47.952 161.297 47.952 162.218 50.1 163.185 49.548 161.712 47.706 161.712 47.676 164.029 47.952"/><polygon fill="#0bceb2" points="82.37 3.866 83.628 2.212 82.833 1.762 82.026 3.615 81.999 3.615 81.178 1.775 80.37 2.238 81.615 3.853 81.615 3.88 79.668 3.628 79.668 4.528 81.628 4.277 81.628 4.303 80.37 5.918 81.125 6.395 81.986 4.528 82.012 4.528 82.806 6.382 83.64 5.905 82.37 4.316 82.37 4.29 84.368 4.528 84.368 3.628 82.37 3.893 82.37 3.866"/></svg>