<svg xmlns="http://www.w3.org/2000/svg" data-name="Layer 5" viewBox="0 0 64 64"><path fill="#cc8964" d="M41 54.86V63H37V55h3.27A1.976 1.976 0 0 0 41 54.86zM27 60v3H23V54.86a1.976 1.976 0 0 0 .73.14H27z"/><path fill="#99674b" d="M41 54.86a1.976 1.976 0 0 1-.73.14H37v2.188h0a1.83 1.83 0 0 1 1.83 1.83V63H41zM23 54.86v2.328h.145a1.83 1.83 0 0 1 1.83 1.83V63H27V55H23.73A1.976 1.976 0 0 1 23 54.86z"/><path fill="#5eb05a" d="M55,9s4,12-6,16c-4.77,1.91-8.96,8.47-10.44,11H34s9.14-9.14,9.24-14.54A144.058,144.058,0,0,1,55,9Z"/><path fill="#9bd76b" d="M55,9A144.058,144.058,0,0,0,43.24,21.46,3.646,3.646,0,0,0,43,20a9.57,9.57,0,0,1-.63-2.8A15.568,15.568,0,0,1,55,9Z"/><path fill="#eceded" d="M28.98,36H42.69a1.994,1.994,0,0,1,1.98,2.28l-2.42,15A2.007,2.007,0,0,1,40.27,55H23.73a1.976,1.976,0,0,1-.73-.14,2.011,2.011,0,0,1-1.25-1.58l-2.42-15A1.994,1.994,0,0,1,21.31,36Z"/><path fill="#c4c4c4" d="M42.69,36H33.97a1.994,1.994,0,0,1,1.98,2.28l-2.42,15A2.007,2.007,0,0,1,31.55,55h8.72a2.007,2.007,0,0,0,1.98-1.72l2.42-15A1.994,1.994,0,0,0,42.69,36Z"/><path fill="#478444" d="M42.37,17.2A9.57,9.57,0,0,0,43,20a3.646,3.646,0,0,1,.24,1.46C43.14,26.86,34,36,34,36H30.61c1.32-2.29,4.28-8.13,3.72-13.87v-.01A48.678,48.678,0,0,1,43.99,8.01,22.212,22.212,0,0,0,42.37,17.2Z"/><path fill="#9bd76b" d="M43.99,8.01a48.678,48.678,0,0,0-9.66,14.11,12.289,12.289,0,0,0-1.31-4.5,16.568,16.568,0,0,1,4.96-6.33A21.719,21.719,0,0,1,43.99,8.01Z"/><path fill="#5eb05a" d="M37.97,11.27l.01.02a16.568,16.568,0,0,0-4.96,6.33c-.08-.16-.17-.32-.26-.48L33,17c-.97-6.81,1.84-15.52,1.99-15.98A.031.031,0,0,0,35,1S37.66,7.21,37.97,11.27Z"/><path fill="#5eb05a" d="M34.33,22.13c.56,5.74-2.4,11.58-3.72,13.87H30C26,26,28,9,28,9a22.734,22.734,0,0,0,1.98,4.01c.54.89,1.21,1.91,2.02,2.99a11.884,11.884,0,0,1,.76,1.14c.09.16.18.32.26.48a12.289,12.289,0,0,1,1.31,4.5Z"/><path fill="#9bd76b" d="M33 17l-.24.14A11.884 11.884 0 0 0 32 16c-.81-1.08-1.48-2.1-2.02-2.99L30 13A18.6 18.6 0 0 1 34.99 1.02C34.84 1.48 32.03 10.19 33 17zM30 36a5.05 5.05 0 0 1-1.14-.13 23.4 23.4 0 0 1-5.58-8.51 16.411 16.411 0 0 1 1.01-13.22A19.985 19.985 0 0 1 28 9S26 26 30 36z"/><path fill="#5eb05a" d="M24.25,14.12l.04.02a16.411,16.411,0,0,0-1.01,13.22C21.09,25.68,20,23.43,20,19A15.3,15.3,0,0,0,16,9C21,8.5,23.25,11.25,24.25,14.12Z"/><path fill="#9bd76b" d="M23.28,27.36a23.4,23.4,0,0,0,5.58,8.51C24,34.83,17.93,27.63,17,23c-.81-4.04-1-14-1-14a15.3,15.3,0,0,1,4,10C20,23.43,21.09,25.68,23.28,27.36Z"/><path fill="#fbfbfb" d="M23.5 46.188a.5.5 0 0 1-.5-.5v-.875a.5.5 0 0 1 1 0v.875A.5.5 0 0 1 23.5 46.188zM23.5 42.813a.5.5 0 0 1-.5-.5v-2a1.5 1.5 0 0 1 1.5-1.5.5.5 0 0 1 0 1 .5.5 0 0 0-.5.5v2A.5.5 0 0 1 23.5 42.813z"/><path fill="#1f1935" d="M38.4 51.987a.98.98 0 0 0 .161.013 1 1 0 0 0 .986-.84l.436-2.695a1 1 0 1 0-1.974-.319l-.437 2.694A1 1 0 0 0 38.4 51.987zM39.375 45.987a.98.98 0 0 0 .161.013 1 1 0 0 0 .986-.84l.811-5a1 1 0 0 0-1.975-.32l-.81 5A1 1 0 0 0 39.375 45.987z"/><path fill="#1f1935" d="M21.8,32.6a1,1,0,0,0,1.407-1.422c-2.648-2.621-4.749-5.986-5.227-8.373a86.872,86.872,0,0,1-.882-10.62A13.614,13.614,0,0,1,19,19a1,1,0,0,0,2,0,15.945,15.945,0,0,0-2.927-9.008,5.87,5.87,0,0,1,5.1,4.145,18.2,18.2,0,0,0-1.84,7.455c-.1,4.626,1.7,9.127,5.366,13.408H21.306a3,3,0,0,0-2.967,3.442l2.426,14.982a2.991,2.991,0,0,0,1.235,2V63a1,1,0,0,0,1,1h4a1,1,0,0,0,1-1V60.414l4-4,4,4V63a1,1,0,0,0,1,1h4a1,1,0,0,0,1-1V55.43a2.964,2.964,0,0,0,1.233-1.988l2.432-15.018A3,3,0,0,0,42.7,35H40.349c1.789-2.792,5.281-7.575,9.023-9.071,10.751-4.3,6.62-17.116,6.577-17.245A1,1,0,0,0,54.9,8.005,16.685,16.685,0,0,0,43.479,13.79a24.11,24.11,0,0,1,1.44-5.4,1,1,0,0,0-1.265-1.331,23.873,23.873,0,0,0-4.909,2.467A49.35,49.35,0,0,0,35.919.606,1,1,0,0,0,34.293.293a17.839,17.839,0,0,0-4.367,7.4,1,1,0,1,0,1.909.6,17.96,17.96,0,0,1,.792-2.043A39.908,39.908,0,0,0,31.8,14a25.128,25.128,0,0,1-2.854-5.317,1,1,0,0,0-1.629-.415,19.928,19.928,0,0,0-2.95,3.7C23.026,9.613,20.537,7.544,15.9,8.005A1,1,0,0,0,15,9.019c.008.41.2,10.093,1.02,14.177C16.577,25.984,18.846,29.675,21.8,32.6ZM26.724,12.07c-.336,4.837-.611,14.21,1.433,21.558-3.285-3.869-4.907-7.887-4.824-11.971A17.473,17.473,0,0,1,26.724,12.07Zm13.1-.868a49.32,49.32,0,0,0-5.133,7.847,12.551,12.551,0,0,0-.558-1.423A15.918,15.918,0,0,1,39.826,11.2ZM35.332,22.344a45.981,45.981,0,0,1,6.415-10.323,14.993,14.993,0,0,0,.324,8.351C43.32,23.492,37.638,30.863,33.579,35H32.288C33.707,32.2,35.7,27.283,35.332,22.344ZM24,62V56h2v6Zm4-6h1.586L28,57.586Zm6.414,0H36v1.586ZM38,62V56h2v6Zm5.451-24.655a.975.975,0,0,1,.237.778L41.256,53.142a1,1,0,0,1-.989.858H23.734a1.01,1.01,0,0,1-.992-.877L20.316,38.141A1,1,0,0,1,21.306,37H42.7A.99.99,0,0,1,43.451,37.345Zm5.177-13.274c-4.74,1.9-8.836,7.935-10.635,10.929H36.329c2.661-2.915,7.494-8.759,7.879-13.136A138.659,138.659,0,0,1,54.455,10.9C55.112,14.1,55.687,21.248,48.628,24.071Zm3.247-13.445c-2.1,2.073-5.232,5.275-8.076,8.609a8.906,8.906,0,0,1-.4-1.831A14.26,14.26,0,0,1,51.875,10.626ZM33.8,14.262a41.66,41.66,0,0,1,1.352-10.1,33.321,33.321,0,0,1,1.767,6.714A17.733,17.733,0,0,0,33.8,14.262ZM30.432,34.239C28.2,27.4,28.378,17.92,28.693,12.78A35.488,35.488,0,0,0,31.2,16.6C35.571,22.429,32.352,30.509,30.432,34.239Z"/></svg>